<svg  viewBox="0 0 24 24" fill="currentColor" xmlns="http://www.w3.org/2000/svg">
<path d="M11.5248 2.29489C11.5687 2.20635 11.6364 2.13183 11.7203 2.07972C11.8042 2.02761 11.9011 2 11.9998 2C12.0986 2 12.1955 2.02761 12.2794 2.07972C12.3633 2.13183 12.431 2.20635 12.4748 2.29489L14.7848 6.97389C14.937 7.28186 15.1617 7.5483 15.4395 7.75035C15.7173 7.95239 16.04 8.08401 16.3798 8.13389L21.5458 8.88989C21.6437 8.90408 21.7357 8.94537 21.8113 9.00909C21.887 9.07282 21.9433 9.15644 21.9739 9.2505C22.0045 9.34456 22.0081 9.4453 21.9844 9.54133C21.9607 9.63736 21.9107 9.72485 21.8398 9.79389L18.1038 13.4319C17.8575 13.672 17.6731 13.9684 17.5667 14.2955C17.4602 14.6227 17.4349 14.9708 17.4928 15.3099L18.3748 20.4499C18.3921 20.5477 18.3816 20.6485 18.3443 20.7406C18.3071 20.8327 18.2448 20.9125 18.1644 20.9709C18.084 21.0293 17.9888 21.0639 17.8897 21.0708C17.7906 21.0777 17.6915 21.0566 17.6038 21.0099L12.9858 18.5819C12.6816 18.4221 12.343 18.3386 11.9993 18.3386C11.6557 18.3386 11.3171 18.4221 11.0128 18.5819L6.39585 21.0099C6.30818 21.0563 6.20924 21.0772 6.1103 21.0701C6.01135 21.0631 5.91636 21.0285 5.83614 20.9701C5.75592 20.9118 5.69368 20.8321 5.6565 20.7401C5.61933 20.6482 5.6087 20.5476 5.62585 20.4499L6.50685 15.3109C6.56504 14.9716 6.53983 14.6233 6.43338 14.2959C6.32694 13.9686 6.14245 13.672 5.89585 13.4319L2.15985 9.79489C2.08844 9.72593 2.03784 9.63829 2.01381 9.54197C1.98978 9.44565 1.99328 9.34451 2.02393 9.25008C2.05457 9.15566 2.11111 9.07174 2.18712 9.00788C2.26313 8.94402 2.35555 8.90279 2.45385 8.88889L7.61885 8.13389C7.9591 8.08439 8.28224 7.95295 8.56043 7.75088C8.83863 7.54881 9.06355 7.28216 9.21585 6.97389L11.5248 2.29489Z" stroke="currentColor" stroke-width="2" stroke-linecap="round" stroke-linejoin="round"/>
</svg>
